<?xml version="1.0" encoding="UTF-8" standalone="no"?>
<svg
   aria-hidden="true"
   focusable="false"
   data-prefix="fas"
   data-icon="user"
   class="svg-inline--fa fa-user fa-w-14"
   role="img"
   viewBox="0 0 693.22156 719.91382"
   version="1.1"
   id="svg94"
   sodipodi:docname="logo.svg"
   inkscape:version="1.1-dev (b39e6d56, 2020-09-19)"
   width="693.22156"
   height="719.91382"
   xmlns:inkscape="http://www.inkscape.org/namespaces/inkscape"
   xmlns:sodipodi="http://sodipodi.sourceforge.net/DTD/sodipodi-0.dtd"
   xmlns="http://www.w3.org/2000/svg"
   xmlns:svg="http://www.w3.org/2000/svg">
  <defs
     id="defs98">
    <inkscape:path-effect
       effect="fill_between_many"
       method="originald"
       linkedpaths="#path941,0,1"
       id="path-effect944"
       is_visible="true"
       lpeversion="0"
       join="true"
       close="true"
       autoreverse="true"
       applied="false" />
  </defs>
  <sodipodi:namedview
     pagecolor="#24ffff"
     bordercolor="#666666"
     borderopacity="1"
     objecttolerance="10"
     gridtolerance="10"
     guidetolerance="10"
     inkscape:pageopacity="0"
     inkscape:pageshadow="2"
     inkscape:window-width="1030"
     inkscape:window-height="988"
     id="namedview96"
     showgrid="false"
     inkscape:zoom="0.57161339"
     inkscape:cx="388.37439"
     inkscape:cy="493.34044"
     inkscape:window-x="0"
     inkscape:window-y="23"
     inkscape:window-maximized="0"
     inkscape:current-layer="svg94"
     inkscape:pagecheckerboard="true"
     fit-margin-top="0"
     fit-margin-left="0"
     fit-margin-right="0"
     fit-margin-bottom="0" />
  <g
     id="g1020"
     transform="translate(-94.877783,55.034702)">
    <path
       id="path941"
       style="fill:#03203a;fill-opacity:1;stroke:#f3fdfe;stroke-width:40;stroke-miterlimit:4;stroke-dasharray:none;stroke-opacity:1"
       d="m 547.14069,-35.026461 c -20.18561,0.228336 -40.30155,5.380388 -58.06909,14.973958 -21.46332,11.5073693 -39.4467,29.3765413 -51.09617,50.762487 -9.80536,17.87984 -15.10153,38.183762 -15.36403,58.569542 -0.32256,20.419074 4.38084,40.905954 13.69089,59.089114 11.1898,22.01872 29.00943,40.59528 50.53685,52.70091 18.18409,10.30233 38.98135,15.89934 59.87437,16.19696 20.51872,0.35882 41.1131,-4.36301 59.37836,-13.73202 21.97882,-11.1925 40.52021,-28.99202 52.61065,-50.4893 10.28555,-18.15606 15.88336,-38.91645 16.19599,-59.776914 0.37612,-20.55173 -4.34585,-41.183462 -13.73007,-59.478341 -11.00962,-21.614732 -28.40439,-39.9083977 -49.42856,-52.005636 -18.0269,-10.442567 -38.693,-16.245161 -59.51606,-16.771306 -1.69366,-0.05016 -3.38874,-0.0557 -5.08313,-0.03945 z M 460.1485,244.33487 c -21.19136,0.23585 -42.30686,5.66177 -60.95424,15.73969 -21.63034,11.61532 -39.89572,29.38062 -52.12968,50.66535 -10.83042,18.74956 -16.90182,40.20744 -17.52099,61.85029 -0.13849,6.59913 -0.031,13.20162 -0.065,19.80209 0.0182,8.74342 -0.0365,17.48785 0.0274,26.23063 0.3146,11.37279 4.84478,22.5491 12.4959,30.96365 7.85551,8.74402 18.9757,14.48456 30.67378,15.72071 4.56959,0.50312 9.17498,0.22433 13.76151,0.29712 111.1889,-0.004 222.37792,0.009 333.56675,-0.007 11.30495,-0.0701 22.51107,-4.29539 31.06582,-11.68248 9.0103,-7.67709 15.05307,-18.7471 16.55113,-30.49671 0.66654,-4.9306 0.33662,-9.9168 0.4163,-14.87485 -0.0173,-11.4913 0.0348,-22.98308 -0.0265,-34.47407 -0.38304,-21.54908 -6.15161,-42.97903 -16.68485,-61.78545 -12.04074,-21.62263 -30.26881,-39.74148 -51.9673,-51.6459 -18.7546,-10.35163 -40.07131,-15.98119 -61.48791,-16.29464 -6.27691,-0.0465 -12.55435,-0.008 -18.83146,-0.0206 -9.50141,4.39008 -19.53159,7.94842 -29.60352,10.47852 -2.88751,0.72673 -5.93624,1.4027 -8.76757,1.96094 -20.99997,4.1001 -42.78951,4.10632 -63.78907,0 -1.31398,-0.26359 -2.86094,-0.5805 -4.25734,-0.89245 -5.86575,-1.30861 -11.6707,-2.9339 -17.41531,-4.87845 -1.96738,-0.66994 -3.85389,-1.3458 -5.74724,-2.06586 -3.71382,-1.40557 -7.37353,-2.95101 -10.9844,-4.6027 -6.1087,0.007 -12.21755,-0.0148 -18.32618,0.0117 z" />
    <path
       id="path1022"
       style="fill:#03203a;fill-opacity:1;stroke:#f3fdfe;stroke-width:40;stroke-miterlimit:4;stroke-dasharray:none;stroke-opacity:1"
       d="m 547.14069,-35.026461 c -20.18561,0.228336 -40.30155,5.380388 -58.06909,14.973958 -21.46332,11.5073693 -39.4467,29.3765413 -51.09617,50.762487 -9.80536,17.87984 -15.10153,38.183762 -15.36403,58.569542 -0.32256,20.419074 4.38084,40.905954 13.69089,59.089114 11.1898,22.01872 29.00943,40.59528 50.53685,52.70091 18.18409,10.30233 38.98135,15.89934 59.87437,16.19696 20.51872,0.35882 41.1131,-4.36301 59.37836,-13.73202 21.97882,-11.1925 40.52021,-28.99202 52.61065,-50.4893 10.28555,-18.15606 15.88336,-38.91645 16.19599,-59.776914 0.37612,-20.55173 -4.34585,-41.183462 -13.73007,-59.478341 -11.00962,-21.614732 -28.40439,-39.9083977 -49.42856,-52.005636 -18.0269,-10.442567 -38.693,-16.245161 -59.51606,-16.771306 -1.69366,-0.05016 -3.38874,-0.0557 -5.08313,-0.03945 z M 460.1485,244.33487 c -21.19136,0.23585 -42.30686,5.66177 -60.95424,15.73969 -21.63034,11.61532 -39.89572,29.38062 -52.12968,50.66535 -10.83042,18.74956 -16.90182,40.20744 -17.52099,61.85029 -0.13849,6.59913 -0.031,13.20162 -0.065,19.80209 0.0182,8.74342 -0.0365,17.48785 0.0274,26.23063 0.3146,11.37279 4.84478,22.5491 12.4959,30.96365 7.85551,8.74402 18.9757,14.48456 30.67378,15.72071 4.56959,0.50312 9.17498,0.22433 13.76151,0.29712 111.1889,-0.004 222.37792,0.009 333.56675,-0.007 11.30495,-0.0701 22.51107,-4.29539 31.06582,-11.68248 9.0103,-7.67709 15.05307,-18.7471 16.55113,-30.49671 0.66654,-4.9306 0.33662,-9.9168 0.4163,-14.87485 -0.0173,-11.4913 0.0348,-22.98308 -0.0265,-34.47407 -0.38304,-21.54908 -6.15161,-42.97903 -16.68485,-61.78545 -12.04074,-21.62263 -30.26881,-39.74148 -51.9673,-51.6459 -18.7546,-10.35163 -40.07131,-15.98119 -61.48791,-16.29464 -6.27691,-0.0465 -12.55435,-0.008 -18.83146,-0.0206 -9.50141,4.39008 -19.53159,7.94842 -29.60352,10.47852 -2.88751,0.72673 -5.93624,1.4027 -8.76757,1.96094 -20.99997,4.1001 -42.78951,4.10632 -63.78907,0 -1.31398,-0.26359 -2.86094,-0.5805 -4.25734,-0.89245 -5.86575,-1.30861 -11.6707,-2.9339 -17.41531,-4.87845 -1.96738,-0.66994 -3.85389,-1.3458 -5.74724,-2.06586 -3.71382,-1.40557 -7.37353,-2.95101 -10.9844,-4.6027 -6.1087,0.007 -12.21755,-0.0148 -18.32618,0.0117 z" />
  </g>
  <g
     inkscape:groupmode="layer"
     id="layer1"
     inkscape:label="Layer 1"
     style="display:none;opacity:0.558719"
     transform="translate(101.54996,183.03448)" />
  <g
     inkscape:groupmode="layer"
     id="layer2"
     inkscape:label="Layer 2"
     style="display:inline"
     transform="translate(101.54996,183.03448)" />
  <g
     id="g1030"
     transform="translate(-201.05126,146.11294)">
    <path
       id="path1026"
       style="fill:#03203a;fill-opacity:1;stroke:#f3fdfe;stroke-width:40;stroke-miterlimit:4;stroke-dasharray:none;stroke-opacity:1"
       d="m 547.14069,-35.026461 c -20.18561,0.228336 -40.30155,5.380388 -58.06909,14.973958 -21.46332,11.5073693 -39.4467,29.3765413 -51.09617,50.762487 -9.80536,17.87984 -15.10153,38.183762 -15.36403,58.569542 -0.32256,20.419074 4.38084,40.905954 13.69089,59.089114 11.1898,22.01872 29.00943,40.59528 50.53685,52.70091 18.18409,10.30233 38.98135,15.89934 59.87437,16.19696 20.51872,0.35882 41.1131,-4.36301 59.37836,-13.73202 21.97882,-11.1925 40.52021,-28.99202 52.61065,-50.4893 10.28555,-18.15606 15.88336,-38.91645 16.19599,-59.776914 0.37612,-20.55173 -4.34585,-41.183462 -13.73007,-59.478341 -11.00962,-21.614732 -28.40439,-39.9083977 -49.42856,-52.005636 -18.0269,-10.442567 -38.693,-16.245161 -59.51606,-16.771306 -1.69366,-0.05016 -3.38874,-0.0557 -5.08313,-0.03945 z M 460.1485,244.33487 c -21.19136,0.23585 -42.30686,5.66177 -60.95424,15.73969 -21.63034,11.61532 -39.89572,29.38062 -52.12968,50.66535 -10.83042,18.74956 -16.90182,40.20744 -17.52099,61.85029 -0.13849,6.59913 -0.031,13.20162 -0.065,19.80209 0.0182,8.74342 -0.0365,17.48785 0.0274,26.23063 0.3146,11.37279 4.84478,22.5491 12.4959,30.96365 7.85551,8.74402 18.9757,14.48456 30.67378,15.72071 4.56959,0.50312 9.17498,0.22433 13.76151,0.29712 111.1889,-0.004 222.37792,0.009 333.56675,-0.007 11.30495,-0.0701 22.51107,-4.29539 31.06582,-11.68248 9.0103,-7.67709 15.05307,-18.7471 16.55113,-30.49671 0.66654,-4.9306 0.33662,-9.9168 0.4163,-14.87485 -0.0173,-11.4913 0.0348,-22.98308 -0.0265,-34.47407 -0.38304,-21.54908 -6.15161,-42.97903 -16.68485,-61.78545 -12.04074,-21.62263 -30.26881,-39.74148 -51.9673,-51.6459 -18.7546,-10.35163 -40.07131,-15.98119 -61.48791,-16.29464 -6.27691,-0.0465 -12.55435,-0.008 -18.83146,-0.0206 -9.50141,4.39008 -19.53159,7.94842 -29.60352,10.47852 -2.88751,0.72673 -5.93624,1.4027 -8.76757,1.96094 -20.99997,4.1001 -42.78951,4.10632 -63.78907,0 -1.31398,-0.26359 -2.86094,-0.5805 -4.25734,-0.89245 -5.86575,-1.30861 -11.6707,-2.9339 -17.41531,-4.87845 -1.96738,-0.66994 -3.85389,-1.3458 -5.74724,-2.06586 -3.71382,-1.40557 -7.37353,-2.95101 -10.9844,-4.6027 -6.1087,0.007 -12.21755,-0.0148 -18.32618,0.0117 z" />
    <path
       id="path1028"
       style="fill:#03203a;fill-opacity:1;stroke:#f3fdfe;stroke-width:40;stroke-miterlimit:4;stroke-dasharray:none;stroke-opacity:1"
       d="m 547.14069,-35.026461 c -20.18561,0.228336 -40.30155,5.380388 -58.06909,14.973958 -21.46332,11.5073693 -39.4467,29.3765413 -51.09617,50.762487 -9.80536,17.87984 -15.10153,38.183762 -15.36403,58.569542 -0.32256,20.419074 4.38084,40.905954 13.69089,59.089114 11.1898,22.01872 29.00943,40.59528 50.53685,52.70091 18.18409,10.30233 38.98135,15.89934 59.87437,16.19696 20.51872,0.35882 41.1131,-4.36301 59.37836,-13.73202 21.97882,-11.1925 40.52021,-28.99202 52.61065,-50.4893 10.28555,-18.15606 15.88336,-38.91645 16.19599,-59.776914 0.37612,-20.55173 -4.34585,-41.183462 -13.73007,-59.478341 -11.00962,-21.614732 -28.40439,-39.9083977 -49.42856,-52.005636 -18.0269,-10.442567 -38.693,-16.245161 -59.51606,-16.771306 -1.69366,-0.05016 -3.38874,-0.0557 -5.08313,-0.03945 z M 460.1485,244.33487 c -21.19136,0.23585 -42.30686,5.66177 -60.95424,15.73969 -21.63034,11.61532 -39.89572,29.38062 -52.12968,50.66535 -10.83042,18.74956 -16.90182,40.20744 -17.52099,61.85029 -0.13849,6.59913 -0.031,13.20162 -0.065,19.80209 0.0182,8.74342 -0.0365,17.48785 0.0274,26.23063 0.3146,11.37279 4.84478,22.5491 12.4959,30.96365 7.85551,8.74402 18.9757,14.48456 30.67378,15.72071 4.56959,0.50312 9.17498,0.22433 13.76151,0.29712 111.1889,-0.004 222.37792,0.009 333.56675,-0.007 11.30495,-0.0701 22.51107,-4.29539 31.06582,-11.68248 9.0103,-7.67709 15.05307,-18.7471 16.55113,-30.49671 0.66654,-4.9306 0.33662,-9.9168 0.4163,-14.87485 -0.0173,-11.4913 0.0348,-22.98308 -0.0265,-34.47407 -0.38304,-21.54908 -6.15161,-42.97903 -16.68485,-61.78545 -12.04074,-21.62263 -30.26881,-39.74148 -51.9673,-51.6459 -18.7546,-10.35163 -40.07131,-15.98119 -61.48791,-16.29464 -6.27691,-0.0465 -12.55435,-0.008 -18.83146,-0.0206 -9.50141,4.39008 -19.53159,7.94842 -29.60352,10.47852 -2.88751,0.72673 -5.93624,1.4027 -8.76757,1.96094 -20.99997,4.1001 -42.78951,4.10632 -63.78907,0 -1.31398,-0.26359 -2.86094,-0.5805 -4.25734,-0.89245 -5.86575,-1.30861 -11.6707,-2.9339 -17.41531,-4.87845 -1.96738,-0.66994 -3.85389,-1.3458 -5.74724,-2.06586 -3.71382,-1.40557 -7.37353,-2.95101 -10.9844,-4.6027 -6.1087,0.007 -12.21755,-0.0148 -18.32618,0.0117 z" />
  </g>
  <g
     id="g1036"
     transform="translate(-309.4685,234.25879)">
    <path
       id="path1032"
       style="fill:#03203a;fill-opacity:1;stroke:#f3fdfe;stroke-width:40;stroke-miterlimit:4;stroke-dasharray:none;stroke-opacity:1"
       d="m 547.14069,-35.026461 c -20.18561,0.228336 -40.30155,5.380388 -58.06909,14.973958 -21.46332,11.5073693 -39.4467,29.3765413 -51.09617,50.762487 -9.80536,17.87984 -15.10153,38.183762 -15.36403,58.569542 -0.32256,20.419074 4.38084,40.905954 13.69089,59.089114 11.1898,22.01872 29.00943,40.59528 50.53685,52.70091 18.18409,10.30233 38.98135,15.89934 59.87437,16.19696 20.51872,0.35882 41.1131,-4.36301 59.37836,-13.73202 21.97882,-11.1925 40.52021,-28.99202 52.61065,-50.4893 10.28555,-18.15606 15.88336,-38.91645 16.19599,-59.776914 0.37612,-20.55173 -4.34585,-41.183462 -13.73007,-59.478341 -11.00962,-21.614732 -28.40439,-39.9083977 -49.42856,-52.005636 -18.0269,-10.442567 -38.693,-16.245161 -59.51606,-16.771306 -1.69366,-0.05016 -3.38874,-0.0557 -5.08313,-0.03945 z M 460.1485,244.33487 c -21.19136,0.23585 -42.30686,5.66177 -60.95424,15.73969 -21.63034,11.61532 -39.89572,29.38062 -52.12968,50.66535 -10.83042,18.74956 -16.90182,40.20744 -17.52099,61.85029 -0.13849,6.59913 -0.031,13.20162 -0.065,19.80209 0.0182,8.74342 -0.0365,17.48785 0.0274,26.23063 0.3146,11.37279 4.84478,22.5491 12.4959,30.96365 7.85551,8.74402 18.9757,14.48456 30.67378,15.72071 4.56959,0.50312 9.17498,0.22433 13.76151,0.29712 111.1889,-0.004 222.37792,0.009 333.56675,-0.007 11.30495,-0.0701 22.51107,-4.29539 31.06582,-11.68248 9.0103,-7.67709 15.05307,-18.7471 16.55113,-30.49671 0.66654,-4.9306 0.33662,-9.9168 0.4163,-14.87485 -0.0173,-11.4913 0.0348,-22.98308 -0.0265,-34.47407 -0.38304,-21.54908 -6.15161,-42.97903 -16.68485,-61.78545 -12.04074,-21.62263 -30.26881,-39.74148 -51.9673,-51.6459 -18.7546,-10.35163 -40.07131,-15.98119 -61.48791,-16.29464 -6.27691,-0.0465 -12.55435,-0.008 -18.83146,-0.0206 -9.50141,4.39008 -19.53159,7.94842 -29.60352,10.47852 -2.88751,0.72673 -5.93624,1.4027 -8.76757,1.96094 -20.99997,4.1001 -42.78951,4.10632 -63.78907,0 -1.31398,-0.26359 -2.86094,-0.5805 -4.25734,-0.89245 -5.86575,-1.30861 -11.6707,-2.9339 -17.41531,-4.87845 -1.96738,-0.66994 -3.85389,-1.3458 -5.74724,-2.06586 -3.71382,-1.40557 -7.37353,-2.95101 -10.9844,-4.6027 -6.1087,0.007 -12.21755,-0.0148 -18.32618,0.0117 z" />
    <path
       id="path1034"
       style="fill:#03203a;fill-opacity:1;stroke:#f3fdfe;stroke-width:40;stroke-miterlimit:4;stroke-dasharray:none;stroke-opacity:1"
       d="m 547.14069,-35.026461 c -20.18561,0.228336 -40.30155,5.380388 -58.06909,14.973958 -21.46332,11.5073693 -39.4467,29.3765413 -51.09617,50.762487 -9.80536,17.87984 -15.10153,38.183762 -15.36403,58.569542 -0.32256,20.419074 4.38084,40.905954 13.69089,59.089114 11.1898,22.01872 29.00943,40.59528 50.53685,52.70091 18.18409,10.30233 38.98135,15.89934 59.87437,16.19696 20.51872,0.35882 41.1131,-4.36301 59.37836,-13.73202 21.97882,-11.1925 40.52021,-28.99202 52.61065,-50.4893 10.28555,-18.15606 15.88336,-38.91645 16.19599,-59.776914 0.37612,-20.55173 -4.34585,-41.183462 -13.73007,-59.478341 -11.00962,-21.614732 -28.40439,-39.9083977 -49.42856,-52.005636 -18.0269,-10.442567 -38.693,-16.245161 -59.51606,-16.771306 -1.69366,-0.05016 -3.38874,-0.0557 -5.08313,-0.03945 z M 460.1485,244.33487 c -21.19136,0.23585 -42.30686,5.66177 -60.95424,15.73969 -21.63034,11.61532 -39.89572,29.38062 -52.12968,50.66535 -10.83042,18.74956 -16.90182,40.20744 -17.52099,61.85029 -0.13849,6.59913 -0.031,13.20162 -0.065,19.80209 0.0182,8.74342 -0.0365,17.48785 0.0274,26.23063 0.3146,11.37279 4.84478,22.5491 12.4959,30.96365 7.85551,8.74402 18.9757,14.48456 30.67378,15.72071 4.56959,0.50312 9.17498,0.22433 13.76151,0.29712 111.1889,-0.004 222.37792,0.009 333.56675,-0.007 11.30495,-0.0701 22.51107,-4.29539 31.06582,-11.68248 9.0103,-7.67709 15.05307,-18.7471 16.55113,-30.49671 0.66654,-4.9306 0.33662,-9.9168 0.4163,-14.87485 -0.0173,-11.4913 0.0348,-22.98308 -0.0265,-34.47407 -0.38304,-21.54908 -6.15161,-42.97903 -16.68485,-61.78545 -12.04074,-21.62263 -30.26881,-39.74148 -51.9673,-51.6459 -18.7546,-10.35163 -40.07131,-15.98119 -61.48791,-16.29464 -6.27691,-0.0465 -12.55435,-0.008 -18.83146,-0.0206 -9.50141,4.39008 -19.53159,7.94842 -29.60352,10.47852 -2.88751,0.72673 -5.93624,1.4027 -8.76757,1.96094 -20.99997,4.1001 -42.78951,4.10632 -63.78907,0 -1.31398,-0.26359 -2.86094,-0.5805 -4.25734,-0.89245 -5.86575,-1.30861 -11.6707,-2.9339 -17.41531,-4.87845 -1.96738,-0.66994 -3.85389,-1.3458 -5.74724,-2.06586 -3.71382,-1.40557 -7.37353,-2.95101 -10.9844,-4.6027 -6.1087,0.007 -12.21755,-0.0148 -18.32618,0.0117 z" />
  </g>
</svg>
